<svg width="12" height="12" viewBox="0 0 12 12" fill="none" xmlns="http://www.w3.org/2000/svg">
<path d="M5.46187 8.56876C5.49977 8.66011 5.50973 8.76065 5.49048 8.85766C5.47124 8.95467 5.42365 9.04379 5.35375 9.11376L3.35375 11.1138C3.30731 11.1602 3.25217 11.1971 3.19147 11.2223C3.13077 11.2474 3.06571 11.2604 3 11.2604C2.93429 11.2604 2.86923 11.2474 2.80853 11.2223C2.74783 11.1971 2.69268 11.1602 2.64625 11.1138L0.646247 9.11376C0.576241 9.04383 0.528558 8.9547 0.509232 8.85766C0.489907 8.76062 0.49981 8.66002 0.537686 8.56861C0.575562 8.4772 0.639709 8.39908 0.722006 8.34415C0.804303 8.28921 0.901049 8.25993 0.999997 8.26001H2.5L2.5 0.760006C2.5 0.627398 2.55268 0.500221 2.64644 0.406453C2.74021 0.312685 2.86739 0.260006 3 0.260006C3.13261 0.260006 3.25978 0.312685 3.35355 0.406453C3.44732 0.500221 3.5 0.627398 3.5 0.760006L3.5 8.26001H5C5.09889 8.26003 5.19555 8.28937 5.27776 8.34433C5.35998 8.39928 5.42405 8.47739 5.46187 8.56876ZM11.3537 2.40626L9.35375 0.406256C9.30731 0.359768 9.25217 0.322889 9.19147 0.297727C9.13077 0.272564 9.06571 0.259613 9 0.259613C8.93429 0.259613 8.86923 0.272564 8.80853 0.297727C8.74783 0.322889 8.69268 0.359768 8.64625 0.406256L6.64625 2.40626C6.57624 2.47618 6.52856 2.56531 6.50923 2.66235C6.48991 2.7594 6.49981 2.85999 6.53769 2.9514C6.57556 3.04281 6.63971 3.12093 6.72201 3.17587C6.8043 3.2308 6.90105 3.26008 7 3.26001L8.5 3.26001L8.5 10.76C8.5 10.8926 8.55268 11.0198 8.64644 11.1136C8.74021 11.2073 8.86739 11.26 9 11.26C9.13261 11.26 9.25978 11.2073 9.35355 11.1136C9.44732 11.0198 9.5 10.8926 9.5 10.76L9.5 3.26001L11 3.26001C11.0989 3.26008 11.1957 3.2308 11.278 3.17587C11.3603 3.12093 11.4244 3.04281 11.4623 2.9514C11.5002 2.85999 11.5101 2.7594 11.4908 2.66235C11.4714 2.56531 11.4238 2.47618 11.3537 2.40626Z" fill="#277C78"/>
</svg>
